<svg width="146.081970" height="150.154785" viewBox="0 0 146.082 150.155" fill="none" xmlns="http://www.w3.org/2000/svg" xmlns:xlink="http://www.w3.org/1999/xlink">
	<desc>
			Created with Pixso.
	</desc>
	<defs/>
	<path id="Vector 186" d="M144.07 129.26C134.63 139.55 124.57 153.98 109.36 145.71C102.14 141.77 98.91 128.81 101.14 121.6C103 115.62 103.16 107.54 110.34 105.27C115.98 103.49 122.1 105.41 124.87 110.94C132.75 126.66 110.17 130.9 100.55 126.47C87.42 120.42 79.72 82.21 94.34 74.26C106.88 67.43 110.22 83.34 100.99 90.08C88 99.55 78.6 97.69 69.9 82.11C63.11 69.95 70.1 53.06 79.74 45.61C81.74 44.06 90.74 32.02 91.81 33.7C102.34 50.29 73.3 64 60.45 57.97C45.69 51.03 30.84 43.84 23.53 29.07C19.6 21.13 15.11 -4.97 15.05 3.89C14.97 14.97 13.86 29.94 6.99 39.35C4.94 42.15 -1.37 51.24 4.27 42.29C10.07 33.08 15.39 25.1 19.17 15.47C20.01 13.33 17.89 9.49 17.36 7.38C16.91 5.59 22.89 9.19 23.65 9.46C30.17 11.76 36.89 10.66 43.39 8.84C49.19 7.22 56.33 3.27 59.73 6.1" stroke="#00ADB5" stroke-opacity="0.200000" stroke-width="4.000000" stroke-linejoin="round" stroke-linecap="round"/>
</svg>
