<svg width="153.000000" height="115.372559" viewBox="0 0 153 115.373" fill="none" xmlns="http://www.w3.org/2000/svg" xmlns:xlink="http://www.w3.org/1999/xlink">
	<desc>
			Created with Pixso.
	</desc>
	<defs/>
	<path id="Vector 75" d="M19.8 69.82C37.97 61.28 53.44 48.78 68.9 36.91C81.05 27.57 93.72 18.27 106.86 9.92C109.45 8.27 113.23 5.12 116.31 5.94C119.36 6.75 120.77 9.73 123.05 11.34C128.66 15.29 133.49 20.35 137.88 25.24C142.7 30.63 133.74 34.92 127.94 39.45C121.36 44.59 115.02 49.85 107.95 54.53C101.24 58.98 95.54 64.72 89.28 69.6C79.74 77.05 70.7 84.86 61.18 92.31C55.51 96.74 49.19 100.56 43.7 105.11C41.77 106.7 39.91 108.73 37.75 110.12C36.02 111.24 34.3 107.89 33.83 107.27C30.05 102.39 23.55 99.49 19.9 94.35C17.6 91.12 16.34 86.96 13.45 84.1C12.07 82.73 8.57 79.7 10.63 77.25C12.73 74.75 17.95 73.08 20.94 71.12C23.27 69.59 26.1 67.71 28.67 66.54C30.54 65.69 32.45 64.35 34.17 63.28C38.68 60.48 34.1 61.97 31.15 63.16" stroke="#00ADB5" stroke-opacity="0.500000" stroke-width="1.000000" stroke-linejoin="round" stroke-linecap="round"/>
	<path id="Vector 76" d="M20.96 80.1C30.74 84.15 39.11 90.67 46.26 97.21C46.45 97.38 48.29 98.27 47.92 98.72C47.23 99.58 40.91 96.74 40.31 96.45" stroke="#00ADB5" stroke-opacity="0.500000" stroke-width="1.000000" stroke-linejoin="round" stroke-linecap="round"/>
	<path id="Vector 77" d="M32.43 71.37C40.67 72.38 45.22 75.54 51.54 78.77C54.36 80.2 57.25 81.46 59.71 83.24C60.86 84.08 61.6 85.27 62.65 86.19C64.08 87.46 57.84 85.07 57.11 84.8" stroke="#00ADB5" stroke-opacity="0.500000" stroke-width="1.000000" stroke-linejoin="round" stroke-linecap="round"/>
	<path id="Vector 78" d="M45.62 64.13C50.97 67.79 56.37 71.38 61.94 74.84C64.05 76.16 66.5 77.31 68.26 78.94C71.38 81.84 67.29 78.08 65.86 77.05" stroke="#00ADB5" stroke-opacity="0.500000" stroke-width="1.000000" stroke-linejoin="round" stroke-linecap="round"/>
	<path id="Vector 79" d="M54.54 59.07C58.66 60.74 62.98 62.31 66.32 64.81C67.69 65.83 68.76 67.1 70.25 68.02C72.08 69.16 73.63 70.55 75.48 71.65C78.12 73.21 78.48 73.72 75.37 71.73" stroke="#00ADB5" stroke-opacity="0.500000" stroke-width="1.000000" stroke-linejoin="round" stroke-linecap="round"/>
	<path id="Vector 80" d="M66.18 51.52C70.63 54.04 74.71 56.65 78.27 59.94C79.84 61.4 81.03 63.15 83.15 64.16C85.08 65.09 86.51 65.26 84.31 63.65" stroke="#00ADB5" stroke-opacity="0.500000" stroke-width="1.000000" stroke-linejoin="round" stroke-linecap="round"/>
	<path id="Vector 81" d="M77.45 43.89C81.38 46 85.28 47.9 88.25 50.86C89.6 52.21 90.6 53.83 92.15 55.04C95.32 57.51 93.07 56.34 90.76 54.68" stroke="#00ADB5" stroke-opacity="0.500000" stroke-width="1.000000" stroke-linejoin="round" stroke-linecap="round"/>
	<path id="Vector 82" d="M87.94 36.11C93.32 40.07 97.61 44.94 103.01 48.84C106.65 51.47 101.51 47.18 100.68 46.41" stroke="#00ADB5" stroke-opacity="0.500000" stroke-width="1.000000" stroke-linejoin="round" stroke-linecap="round"/>
	<path id="Vector 83" d="M100.35 29.47C105.65 27.23 111.19 24.66 114.49 20.28C115.4 19.07 116.5 17.99 116.99 16.69C117.65 14.9 117.46 15.66 115.71 16.96" stroke="#00ADB5" stroke-opacity="0.500000" stroke-width="1.000000" stroke-linejoin="round" stroke-linecap="round"/>
	<path id="Vector 84" d="M107.74 34.16C112.18 30.7 117.13 26.92 120.61 22.78C122.34 20.71 125.47 18.08 121.17 21.27" stroke="#00ADB5" stroke-opacity="0.500000" stroke-width="1.000000" stroke-linejoin="round" stroke-linecap="round"/>
	<path id="Vector 85" d="M119.76 39C123.87 35.39 127.54 32.05 131.38 28.32C132.62 27.12 136.14 25.34 132.02 26.65" stroke="#00ADB5" stroke-opacity="0.500000" stroke-width="1.000000" stroke-linejoin="round" stroke-linecap="round"/>
	<path id="Vector 86" d="M117.07 37.71C121.27 34.64 126.04 31.07 129.54 27.4C130.48 26.41 131.24 25.35 132.11 24.34C133.57 22.65 133.58 23.17 131.67 23.54" stroke="#00ADB5" stroke-opacity="0.500000" stroke-width="1.000000" stroke-linejoin="round" stroke-linecap="round"/>
	<path id="Vector 87" d="M30.58 84.28C50.56 75.9 57.63 58.42 74.54 47.1C76.6 45.72 78.32 44.25 80.64 43.2C82.19 42.49 84.05 42.03 85.49 41.19C86.37 40.67 93.76 35.73 88.79 37.98" stroke="#00ADB5" stroke-opacity="0.500000" stroke-width="1.000000" stroke-linejoin="round" stroke-linecap="round"/>
	<path id="Vector 88" d="M22.31 80.75C24.75 78.41 26.9 76.4 29.83 74.58C30.31 74.28 31.01 74.16 31.42 73.79C32.24 73.05 33.47 71.96 33.87 71.08C35.44 67.61 40.75 67.63 43.84 65.63C46.79 63.73 49.64 61.82 52.63 59.93C55.93 57.86 57.56 56.17 60.33 53.68C62.87 51.38 65.35 49.07 68.01 46.86C70.18 45.06 73.45 43.28 74.98 41.11C76.7 38.67 80.65 35.65 83.82 35.71C84.91 35.74 92.54 38.62 87.55 36.79" stroke="#00ADB5" stroke-opacity="0.500000" stroke-width="1.000000" stroke-linejoin="round" stroke-linecap="round"/>
	<path id="Vector 89" d="M38.46 86.98C53.67 79.28 63.49 65.11 74.59 53.99C78.68 49.89 84.13 46.86 88.37 42.81C90.19 41.08 93.95 39.03 89.84 39.52" stroke="#00ADB5" stroke-opacity="0.500000" stroke-width="1.000000" stroke-linejoin="round" stroke-linecap="round"/>
	<path id="Vector 90" d="M43.07 90.17C56.98 82.28 66.98 69.38 77.76 58.83C82.67 54.03 87.44 49.16 92.4 44.39C94.66 42.21 98.29 40.61 93.57 43.1" stroke="#00ADB5" stroke-opacity="0.500000" stroke-width="1.000000" stroke-linejoin="round" stroke-linecap="round"/>
	<path id="Vector 91" d="M47.26 96.31C56.27 89.03 63.78 81.43 71.45 73.32C76.11 68.38 80.31 62.96 85.61 58.39C88.65 55.77 91.13 52.83 93.94 50.1C95.07 49 95.92 47.77 97.08 46.68C99.69 44.21 97.81 46.39 96.04 47.77" stroke="#00ADB5" stroke-opacity="0.500000" stroke-width="1.000000" stroke-linejoin="round" stroke-linecap="round"/>
	<path id="Vector 92" d="M48.78 98.89C53.26 95.25 59.61 91.53 62.88 87.09C64.07 85.48 67 81.59 68.82 80.49C71.24 79.02 72.67 76.32 74.53 74.52C76.46 72.64 78.36 70.8 80.43 68.99C82.37 67.28 83.29 64.58 85.62 63.04C88.21 61.33 89.68 58.96 91.83 57.02C93.68 55.35 97.04 53.45 99.24 52.08C100.46 51.32 101.37 50.37 102.73 49.75C105.46 48.51 103.7 49.19 101.33 49.38" stroke="#00ADB5" stroke-opacity="0.500000" stroke-width="1.000000" stroke-linejoin="round" stroke-linecap="round"/>
	<path id="Vector 93" d="M99.85 30.7C103.1 31.03 107.15 31.06 110 32.18C111.83 32.91 113.41 33.66 110.07 32.34" stroke="#00ADB5" stroke-opacity="0.500000" stroke-width="1.000000" stroke-linejoin="round" stroke-linecap="round"/>
	<path id="Vector 94" d="M103.95 25.82C108.58 26.29 111.79 27.03 115.4 28.64C117.76 29.69 117.4 29.36 114.93 28.38" stroke="#00ADB5" stroke-opacity="0.500000" stroke-width="1.000000" stroke-linejoin="round" stroke-linecap="round"/>
	<path id="Vector 95" d="M110.37 20.64C114.2 22.04 117.88 23.7 121.89 24.84C124.25 25.51 122.95 25.59 121.13 25.05" stroke="#00ADB5" stroke-opacity="0.500000" stroke-width="1.000000" stroke-linejoin="round" stroke-linecap="round"/>
	<path id="Vector 96" d="M114.17 16.66C118.25 17.75 122 18.88 125.69 20.42C127.37 21.12 125.72 21.36 124.45 20.78" stroke="#00ADB5" stroke-opacity="0.500000" stroke-width="1.000000" stroke-linejoin="round" stroke-linecap="round"/>
	<path id="Vector 97" d="M102.19 28.88C105.87 25.41 109.55 22.1 112.95 18.58C113.92 17.58 119.75 11.96 117.17 14.79" stroke="#00ADB5" stroke-opacity="0.500000" stroke-width="1.000000" stroke-linejoin="round" stroke-linecap="round"/>
	<path id="Vector 98" d="M104.84 33.96C109.5 30.48 116.15 25.78 118.15 21.13C118.73 19.76 119.79 18.34 121.19 17.29C122.62 16.22 124.03 15.65 121.88 17.43" stroke="#00ADB5" stroke-opacity="0.500000" stroke-width="1.000000" stroke-linejoin="round" stroke-linecap="round"/>
	<path id="Vector 99" d="M101.46 34.24C106.52 29.82 110.74 26.77 113.96 21.66C114.8 20.34 115.7 19.22 116.93 18.11C118.23 16.94 120.02 15.78 117.53 17.89" stroke="#00ADB5" stroke-opacity="0.500000" stroke-width="1.000000" stroke-linejoin="round" stroke-linecap="round"/>
	<path id="Vector 100" d="M117.96 34.29C119.9 35.11 121.84 35.86 123.88 36.5C124.72 36.77 123.72 36.19 123.35 36.11" stroke="#00ADB5" stroke-opacity="0.500000" stroke-width="1.000000" stroke-linejoin="round" stroke-linecap="round"/>
	<path id="Vector 101" d="M122.74 28.6C122.87 28.68 130.26 33.39 128.98 32.3" stroke="#00ADB5" stroke-opacity="0.500000" stroke-width="1.000000" stroke-linejoin="round" stroke-linecap="round"/>
	<path id="Vector 102" d="M127.88 26.01C129.49 27.21 134.44 30.67 132.67 29.62" stroke="#00ADB5" stroke-opacity="0.500000" stroke-width="1.000000" stroke-linejoin="round" stroke-linecap="round"/>
	<path id="Vector 103" d="M115.24 36.78C118.54 34.21 125.71 29.04 127.79 25.43C128.61 24 131.75 21.93 128.77 24.1" stroke="#00ADB5" stroke-opacity="0.500000" stroke-width="1.000000" stroke-linejoin="round" stroke-linecap="round"/>
	<path id="Vector 104" d="M115.52 37.41C115.78 37.56 120.81 41.87 122.36 39.33C123.15 38.04 124.18 36.35 125.8 35.5C128.64 34.02 129.66 30.23 132.53 28.93C135.8 27.44 135.78 25.57 132.98 25.22C131.87 25.08 133.02 23.18 131.82 23.45C130.72 23.71 130.2 23.45 128.96 23.76" stroke="#00ADB5" stroke-opacity="0.500000" stroke-width="1.000000" stroke-linejoin="round" stroke-linecap="round"/>
	<path id="Vector 105" d="M99.57 30.07C101.11 32.86 101.33 33.91 104.32 34.82C105.12 35.06 106.3 34.46 106.91 34.66C108.12 35.04 110.65 34.76 111.74 33.71C113.93 31.58 114.81 30.27 117.92 28.78C119.88 27.84 121.61 25.94 122.67 24.41C123.84 22.73 125.71 21.35 126.92 19.66C127.44 18.94 124.25 17.59 124.39 16.43C124.42 16.1 120.35 16.54 119.71 16.34C118.94 16.1 118.63 15.67 118.33 15.02C117.9 14.06 116.7 15.44 115.14 15.71" stroke="#00ADB5" stroke-opacity="0.500000" stroke-width="1.000000" stroke-linejoin="round" stroke-linecap="round"/>
	<path id="Vector 106" d="M26.4 75.87C30.83 76.77 34.62 78.14 38.5 79.69C41.88 81.04 45.83 81.51 49.19 82.81C51.58 83.73 53.85 86.2 55.49 87.8C56.03 88.33 56.42 88.84 56.78 89.48C57.58 90.92 57.04 87.27 56.99 86.86" stroke="#00ADB5" stroke-opacity="0.500000" stroke-width="1.000000" stroke-linejoin="round" stroke-linecap="round"/>
	<path id="Vector 107" d="M75.05 42.47C76.18 43.41 80.54 48.81 80.14 44.42" stroke="#00ADB5" stroke-opacity="0.500000" stroke-width="1.000000" stroke-linejoin="round" stroke-linecap="round"/>
</svg>
