<svg width="77.964966" height="99.885620" viewBox="0 0 77.965 99.8856" fill="none" xmlns="http://www.w3.org/2000/svg" xmlns:xlink="http://www.w3.org/1999/xlink">
	<desc>
			Created with Pixso.
	</desc>
	<defs/>
	<path id="Vector 55" d="M17.71 66.83C23.58 60.7 23.88 58.58 24.89 51.11C25.45 47 26.29 43.06 26.32 38.88C26.37 31.4 28.28 21.81 35.41 17.66C49.44 9.5 65.94 30.75 55.95 43.17C52.15 47.9 46.99 50.78 42.68 55.05C40.95 56.76 39.7 58.78 37.65 60.26C35.68 61.69 33.24 63.46 32.64 65.71C32.14 67.62 32.05 70.24 30.26 71.57C27.78 73.4 28.76 72.38 26.01 71.65C24.11 71.15 21.72 68.91 20.51 67.28C19.65 66.12 18.4 68.49 19.04 66.06C19.6 63.97 19.81 65.88 18.43 65.52" stroke="#00ADB5" stroke-opacity="0.500000" stroke-width="1.663333" stroke-linejoin="round" stroke-linecap="round"/>
	<path id="Vector 56" d="M24.72 75.81C21.26 73.7 11.54 68.46 13.13 72.19C15.04 76.68 16.77 75.14 20.12 76.87C21.84 77.76 22.12 83.84 20.08 83.43C17.16 82.84 16.27 78.46 13.34 77.68C10.67 76.98 9.94 80.54 11.21 82.21C12.88 84.41 15.78 83.28 16.52 86.22C17.7 90.86 11.74 88.58 10.25 87.16C8.75 85.74 7.47 83.81 6.41 82.61" stroke="#00ADB5" stroke-opacity="0.500000" stroke-width="1.663333" stroke-linejoin="round" stroke-linecap="round"/>
	<path id="Vector 57" d="M18.01 65.69C17.98 66.01 17.49 68.08 18.31 68.3C18.75 68.42 19.03 68.2 19.37 68.54C19.78 68.93 20.06 69.67 20.42 70.15C20.74 70.58 21.94 70.86 22.06 71.32C22.26 72.07 22.93 72.63 23.61 72.9C24.51 73.24 24.72 73.79 25.76 73.83C26.08 73.85 26.16 73.66 26.44 73.74C26.87 73.85 27 74.11 27.42 73.83C27.89 73.52 28.53 73.49 28.86 72.93C29.32 72.16 30.3 71.96 28.88 72.13" stroke="#00ADB5" stroke-opacity="0.500000" stroke-width="1.663333" stroke-linejoin="round" stroke-linecap="round"/>
	<path id="Vector 58" d="M44.12 35.45C42.55 35.04 41.23 34.8 40.25 36.32C39.59 37.35 39.29 38.47 38.98 39.64C38.68 40.78 39.13 41.89 38.85 42.96C38.47 44.39 37.4 43.85 36.32 44.03C35.3 44.2 34.55 44.37 33.82 45.15C33.09 45.93 33 47.78 32.8 48.78C32.63 49.64 32.56 51.55 31.79 52.11C31.36 52.42 29.46 52.56 30.83 52.01" stroke="#00ADB5" stroke-opacity="0.500000" stroke-width="1.663333" stroke-linejoin="round" stroke-linecap="round"/>
	<path id="Vector 59" d="M53.16 54.82C54.2 55.99 55.3 57.02 56.56 57.92C57.09 58.3 57.76 58.9 57.87 57.94" stroke="#00ADB5" stroke-opacity="0.500000" stroke-width="1.663333" stroke-linejoin="round" stroke-linecap="round"/>
	<path id="Vector 60" d="M60.92 43.92C63.01 45.05 65.06 46.24 67.11 47.42C67.45 47.61 66.85 46.46 66.83 46.42" stroke="#00ADB5" stroke-opacity="0.500000" stroke-width="1.663333" stroke-linejoin="round" stroke-linecap="round"/>
	<path id="Vector 61" d="M64.58 32.6C66.97 32.87 69.38 33.07 71.78 33.27C72.89 33.36 73.3 33.61 72.94 32.56" stroke="#00ADB5" stroke-opacity="0.500000" stroke-width="1.663333" stroke-linejoin="round" stroke-linecap="round"/>
	<path id="Vector 62" d="M55.35 17.12C57.26 17.28 58.92 17.39 60.78 17C61.65 16.82 62.52 16.55 63.41 16.46C64.46 16.34 64.45 16.46 63.56 15.54" stroke="#00ADB5" stroke-opacity="0.500000" stroke-width="1.663333" stroke-linejoin="round" stroke-linecap="round"/>
	<path id="Vector 63" d="M41.57 5.03C40.81 6.82 40.6 7.96 40.91 9.84C41.07 10.86 41.11 12.1 41.05 13.13C41.03 13.49 41.02 13.69 41.18 14.01C41.24 14.12 41.23 12.91 41.22 12.72" stroke="#00ADB5" stroke-opacity="0.500000" stroke-width="1.663333" stroke-linejoin="round" stroke-linecap="round"/>
	<path id="Vector 64" d="M26.18 8.93C26.25 11.02 26.59 13.1 26.57 15.18C26.56 16.23 26.39 16.24 26.23 15.14" stroke="#00ADB5" stroke-opacity="0.500000" stroke-width="1.663333" stroke-linejoin="round" stroke-linecap="round"/>
	<path id="Vector 65" d="M16.88 21.39C18.42 23.64 19.48 26.21 20.47 28.74C20.59 29.06 20.79 29.21 20.95 29.48C21.31 30.1 20.76 28.77 20.7 28.59" stroke="#00ADB5" stroke-opacity="0.500000" stroke-width="1.663333" stroke-linejoin="round" stroke-linecap="round"/>
</svg>
