<svg width="130.661926" height="23.630859" viewBox="0 0 130.662 23.6309" fill="none" xmlns="http://www.w3.org/2000/svg" xmlns:xlink="http://www.w3.org/1999/xlink">
	<desc>
			Created with Pixso.
	</desc>
	<defs/>
	<path id="SaulDesign" d="M100.66 1.83C100.66 2.84 99.77 3.67 98.69 3.67C97.61 3.67 96.73 2.84 96.73 1.83C96.73 0.82 97.61 0 98.69 0C99.77 0 100.66 0.82 100.66 1.83ZM13.57 6.01L10.03 6.01C9.89 4.64 8.81 3.84 7.04 3.84C5.23 3.84 4.24 4.66 4.24 5.79C4.21 7.04 5.49 7.61 7 7.95L8.57 8.33C11.6 9.01 13.79 10.55 13.8 13.46C13.79 16.66 11.29 18.69 7.03 18.69C2.79 18.69 0.09 16.74 0 12.97L3.56 12.97C3.69 14.71 5.06 15.6 6.99 15.6C8.86 15.6 10.07 14.73 10.08 13.45C10.07 12.28 9.01 11.73 7.11 11.27L5.21 10.79C2.26 10.08 0.45 8.61 0.45 6.04C0.44 2.87 3.24 0.75 7.07 0.75C10.95 0.75 13.51 2.9 13.57 6.01ZM45.05 0.99L48.69 0.99L48.69 18.45L45.05 18.45L45.05 0.99ZM66.38 9.7C66.38 15.16 63.16 18.45 57.84 18.45L51.65 18.45L51.65 0.99L57.89 0.99C63.16 0.99 66.38 4.27 66.38 9.7ZM55.34 4.16L55.34 15.28L57.69 15.28C60.97 15.28 62.7 13.59 62.7 9.7C62.7 5.83 60.97 4.16 57.69 4.16L55.34 4.16ZM23.76 16.63C23.12 17.85 21.88 18.69 19.94 18.69C17.44 18.69 15.59 17.38 15.59 14.79C15.59 11.87 17.92 11 20.51 10.76C22.78 10.54 23.68 10.42 23.68 9.58L23.68 9.53C23.68 8.46 22.97 7.83 21.73 7.83C20.43 7.83 19.65 8.47 19.41 9.35L16.05 9.07C16.55 6.69 18.62 5.19 21.75 5.19C24.67 5.19 27.31 6.5 27.31 9.62L27.31 18.45L23.87 18.45L23.87 16.63L23.76 16.63ZM80.94 14.7C80.43 17.13 78.24 18.7 75 18.7C70.97 18.7 68.51 16.11 68.51 11.96C68.51 7.92 71 5.19 74.86 5.19C78.32 5.19 81.01 7.38 81.01 11.83L81.01 12.83L72.09 12.83L72.09 12.84C72.09 14.79 73.25 15.99 75.06 15.99C76.27 15.99 77.21 15.47 77.58 14.47L80.94 14.7ZM88.7 5.19C92 5.19 93.95 6.67 94.27 9.09L90.95 9.29C90.77 8.45 90.02 7.76 88.76 7.76C87.63 7.76 86.75 8.27 86.75 9.05C86.75 9.69 87.2 10.1 88.42 10.37L90.79 10.85C93.33 11.36 94.56 12.5 94.57 14.39C94.56 16.97 92.13 18.7 88.74 18.7C85.27 18.7 83.14 17.16 82.8 14.66L86.37 14.47C86.6 15.53 87.46 16.08 88.75 16.08C90.02 16.08 90.86 15.53 90.88 14.75C90.86 14.1 90.35 13.68 89.2 13.45L86.94 13C84.38 12.49 83.14 11.22 83.15 9.26C83.14 6.73 85.35 5.19 88.7 5.19ZM115.69 18.58C115.69 21.92 113.03 23.63 109.29 23.63C105.76 23.63 103.74 22.04 103.31 19.98L106.67 19.53C106.97 20.32 107.77 21.02 109.37 21.02C110.95 21.02 112.1 20.32 112.1 18.52L112.1 16.13L111.95 16.13C111.47 17.21 110.31 18.26 108.22 18.26C105.27 18.26 102.9 16.23 102.9 11.88C102.9 7.42 105.34 5.19 108.21 5.19C110.4 5.19 111.47 6.49 111.95 7.55L112.09 7.55L112.09 5.36L115.69 5.36L115.69 18.58ZM124.7 8.2C123.23 8.2 122.23 9.19 122.22 10.88L122.22 18.45L118.59 18.45L118.59 5.36L122.05 5.36L122.05 7.66L122.2 7.66C122.79 6.14 124.19 5.19 126.14 5.19C128.86 5.19 130.66 7.06 130.66 10.11L130.66 18.45L127.02 18.45L127.02 10.76C127.04 9.16 126.16 8.2 124.7 8.2ZM36.03 15.55C37.33 15.55 38.53 14.63 38.53 12.87L38.53 5.36L42.16 5.36L42.16 18.45L38.67 18.45L38.67 16.07L38.53 16.07C37.95 17.6 36.53 18.62 34.56 18.62C31.93 18.62 30.14 16.75 30.13 13.69L30.13 5.36L33.76 5.36L33.76 13.04C33.77 14.58 34.66 15.55 36.03 15.55ZM100.5 18.45L96.86 18.45L96.86 5.36L100.5 5.36L100.5 18.45ZM74.92 7.89C73.31 7.89 72.18 9.09 72.09 10.58L77.6 10.58C77.58 9.02 76.49 7.89 74.92 7.89ZM106.61 11.86C106.61 14.12 107.59 15.53 109.37 15.53C111.11 15.53 112.12 14.17 112.12 11.86C112.12 9.56 111.13 8.08 109.37 8.08C107.57 8.08 106.61 9.63 106.61 11.86ZM19.06 14.67C19.06 15.67 19.86 16.19 20.98 16.19C22.57 16.19 23.7 15.14 23.7 13.76L23.7 12.38C23.27 12.67 21.97 12.86 21.18 12.97C19.91 13.14 19.06 13.65 19.06 14.67Z" fill="#EEEEEE" fill-opacity="1.000000" fill-rule="evenodd"/>
</svg>
