<svg width="75.000000" height="71.674072" viewBox="0 0 75 71.6741" fill="none" xmlns="http://www.w3.org/2000/svg" xmlns:xlink="http://www.w3.org/1999/xlink">
	<desc>
			Created with Pixso.
	</desc>
	<defs/>
	<path id="Vector 115" d="M10.24 27.39C18.2 23.28 26.31 17.89 33.43 12.39C37.24 9.44 41.33 6.92 45.02 3.87C45.54 3.44 46.82 1.41 47.59 2.08C48.81 3.13 49.99 4.94 50.73 6.36C52.89 10.47 55.88 14.6 58.93 18.06C61.36 20.81 63.33 23.13 65.17 26.32C66.18 28.07 68.68 30.45 68.5 32.4C68 37.81 62.95 42.82 59.47 46.36C54.37 51.57 49.38 56.79 43.31 60.79C39.55 63.27 35.31 64.58 31.46 66.81C27.92 68.85 28.21 68.58 24.83 65.6C21.51 62.68 19.45 59.5 17.19 55.59C16.02 53.56 13.92 51.8 12.29 50.12C11.05 48.85 10.6 46.67 9.93 45.07C9.24 43.39 9.3 38.58 7.76 37.57C6.26 36.59 4.51 34.43 4.94 32.49C5.28 30.91 18.45 21.64 7.45 31.99" stroke="#00ADB5" stroke-opacity="0.500000" stroke-width="1.000000" stroke-linejoin="round" stroke-linecap="round"/>
	<path id="Vector 116" d="M6.05 34.94C9.04 36.39 11.96 38.48 14.92 39.85C15.91 40.3 17.59 40.21 18.39 40.83C20.54 42.52 26.76 41.5 29.4 41.74C32.38 42.01 40.54 46.1 41.64 41.07C43.7 31.63 46 22.23 48.05 12.82C48.44 11.04 47.92 9.29 48.27 7.66C49.35 2.72 44.61 5.84 43 6.77" stroke="#00ADB5" stroke-opacity="0.500000" stroke-width="1.000000" stroke-linejoin="round" stroke-linecap="round"/>
</svg>
