<svg width="63.195435" height="48.253784" viewBox="0 0 63.1954 48.2538" fill="none" xmlns="http://www.w3.org/2000/svg" xmlns:xlink="http://www.w3.org/1999/xlink">
	<desc>
			Created with Pixso.
	</desc>
	<defs/>
	<path id="Vector 141" d="M5.37 43.12C6.27 41.98 7.98 39.88 5.58 39.5C5.03 39.42 4.53 39.1 3.99 39.34C2.35 40.09 0.83 41.72 0.83 43.67C0.83 46.78 4.24 47.46 6.72 47.42C10.9 47.35 12.17 43.27 13.65 39.97C15.14 36.64 16.8 33.36 18.34 30.05C20.1 26.31 22.97 23.32 24.79 19.61C25.56 18.02 26.58 16.62 27.59 15.17C29.14 12.91 30.25 10.64 31.36 8.14C32.28 6.09 33.29 4.22 34.41 2.28C34.86 1.49 34.69 0.29 35.56 1.13C36.21 1.77 37.26 2.18 38.14 2.35C42.01 3.05 45.56 3.8 49.54 3.49C53.56 3.17 57.59 2.59 61.55 1.82C62.9 1.56 62.32 1.88 61.69 2.69C60.61 4.08 59.69 5.55 58.66 6.95C57.31 8.79 56.84 10.99 56.04 13.09C55.17 15.39 54.12 17.59 53.29 19.93C51.67 24.45 49.31 28.57 46.4 32.37C44.7 34.57 42.62 38.41 39.45 38.26C34.55 38.01 37.86 28.37 40.2 26.48C41.46 25.47 42.84 26.56 42.99 27.92C43.2 29.8 42.56 32.36 40.74 33.28C38.82 34.24 37.35 34.13 38.83 31.64C39.72 30.13 40.25 31.79 40.62 31.05" stroke="#00ADB5" stroke-opacity="0.500000" stroke-width="1.663333" stroke-linejoin="round" stroke-linecap="round"/>
</svg>
