<svg width="256.483521" height="348.822510" viewBox="0 0 256.484 348.823" fill="none" xmlns="http://www.w3.org/2000/svg" xmlns:xlink="http://www.w3.org/1999/xlink">
	<desc>
			Created with Pixso.
	</desc>
	<defs/>
	<rect id="Rectangle 345" x="119.487671" y="255.056396" rx="3.515357" width="45.030872" height="92.943726" fill="#00ADB5" fill-opacity="1.000000"/>
	<rect id="Rectangle 345" x="119.487671" y="255.056396" rx="3.515357" width="45.030872" height="92.943726" stroke="#000000" stroke-opacity="1.000000" stroke-width="1.644861" stroke-linejoin="round"/>
	<rect id="Rectangle 346" x="1.687012" y="281.894775" rx="3.515357" width="45.030872" height="66.105324" fill="#EEEEEE" fill-opacity="1.000000"/>
	<rect id="Rectangle 346" x="1.687012" y="281.894775" rx="3.515357" width="45.030872" height="66.105324" stroke="#000000" stroke-opacity="1.000000" stroke-width="1.644861" stroke-linejoin="round"/>
	<rect id="Rectangle 347" x="210.630249" y="152.025635" rx="3.515357" width="45.030872" height="195.974350" fill="#00ADB5" fill-opacity="1.000000"/>
	<rect id="Rectangle 347" x="210.630249" y="152.025635" rx="3.515357" width="45.030872" height="195.974350" stroke="#000000" stroke-opacity="1.000000" stroke-width="1.644861" stroke-linejoin="round"/>
	<path id="Rectangle 41" d="M61.46 128.16L107.76 128.16C107.76 128.16 100.38 195.6 90.33 206.65C80.29 217.71 27.73 248.03 27.73 248.03L10.03 237.17L43.03 185.2C43.03 185.2 39.4 164.93 61.46 128.16Z" fill="#00ADB5" fill-opacity="1.000000" fill-rule="nonzero"/>
	<path id="Rectangle 41" d="M107.76 128.16C107.76 128.16 100.38 195.6 90.33 206.65C80.29 217.71 27.73 248.03 27.73 248.03L10.03 237.17L43.03 185.2C43.03 185.2 39.4 164.93 61.46 128.16L107.76 128.16Z" stroke="#000000" stroke-opacity="1.000000" stroke-width="1.398869"/>
	<path id="Vector 60" d="M28.48 247.42L10.03 237.17L0.69 247.22C0.69 247.22 16.43 256.34 27.42 259.92L22.77 253.79L28.48 247.42Z" fill="#EEEEEE" fill-opacity="1.000000" fill-rule="nonzero"/>
	<path id="Vector 60" d="M28.48 247.42L22.77 253.79L27.42 259.92C16.43 256.34 0.69 247.22 0.69 247.22L10.03 237.17L28.48 247.42Z" stroke="#000000" stroke-opacity="1.000000" stroke-width="1.398869" stroke-linejoin="round"/>
	<path id="Rectangle 40" d="M61.65 127.18L112.24 127.11C112.24 127.11 140.36 151.84 143.91 166.35C147.45 180.86 143.41 233.52 143.41 233.52L122.96 242.56L101.85 186.94C101.85 186.94 79.78 166.04 61.65 127.18Z" fill="#00ADB5" fill-opacity="1.000000" fill-rule="nonzero"/>
	<path id="Rectangle 40" d="M112.24 127.11C112.24 127.11 140.36 151.84 143.91 166.35C147.45 180.86 143.41 233.52 143.41 233.52L122.96 242.56L101.85 186.94C101.85 186.94 79.78 166.04 61.65 127.18L112.24 127.11Z" stroke="#000000" stroke-opacity="1.000000" stroke-width="1.398869"/>
	<mask id="mask_25_10066" fill="white">
		<path id="Union" d="M106.028 44.6846C107.178 44.2649 108.274 43.6514 109.274 42.7993C116.822 36.3689 113.585 26.6672 109.018 21.6162C104.45 16.5652 76.5059 18.5801 89.6879 41.979C89.7434 42.0125 89.8 42.0461 89.8575 42.0798C91.3313 46.7695 90.0884 50.7917 88.5971 55.6182C87.9889 57.5864 87.3394 59.6887 86.8159 62.0244L100.797 61.0227C104.639 55.8047 106.096 50.5449 106.028 44.6846Z" clip-rule="evenodd" fill="" fill-opacity="1.000000" fill-rule="evenodd"/>
	</mask>
	<path id="Union" d="M106.028 44.6846C107.178 44.2649 108.274 43.6514 109.274 42.7993C116.822 36.3689 113.585 26.6672 109.018 21.6162C104.45 16.5652 76.5059 18.5801 89.6879 41.979C89.7434 42.0125 89.8 42.0461 89.8575 42.0798C91.3313 46.7695 90.0884 50.7917 88.5971 55.6182C87.9889 57.5864 87.3394 59.6887 86.8159 62.0244L100.797 61.0227C104.639 55.8047 106.096 50.5449 106.028 44.6846Z" clip-rule="evenodd" fill="#F5B9AB" fill-opacity="1.000000" fill-rule="evenodd" mask="url(#mask_25_10066)"/>
	<path id="Union" d="M105.746 43.9119Q107.415 43.3032 108.741 42.1733Q113.581 38.0498 112.872 31.783Q112.267 26.4358 108.408 22.168Q106.841 20.4358 102.175 20.198Q97.1288 19.9407 93.0484 21.8723Q88.3682 24.0876 87.3032 28.4121Q85.991 33.741 90.4045 41.5752L89.6879 41.979L90.1083 41.2722L90.278 41.373Q90.4084 41.4506 90.5025 41.5696Q90.5967 41.6886 90.6422 41.8333Q92.1927 46.7673 89.3829 55.8608L89.3829 55.8608L89.3829 55.8608Q88.1347 59.9004 87.6184 62.2041L86.8159 62.0244L86.7571 61.2041L100.738 60.2021L100.797 61.0227L100.134 60.5349Q105.309 53.509 105.205 44.6943Q105.205 44.6308 105.214 44.568Q105.223 44.5051 105.241 44.4444Q105.26 44.3836 105.287 44.3265Q105.315 44.2693 105.351 44.217Q105.387 44.1648 105.431 44.1187Q105.474 44.0726 105.525 44.0338Q105.575 43.9949 105.631 43.9643Q105.686 43.9336 105.746 43.9119ZM106.31 45.4573L106.028 44.6846L106.85 44.675Q106.96 54.0408 101.459 61.5103Q101.352 61.6557 101.194 61.7429Q101.036 61.8301 100.855 61.843L86.8747 62.8447Q86.7541 62.8533 86.636 62.8269Q86.557 62.8092 86.4829 62.7764Q86.4089 62.7436 86.3426 62.697Q86.2764 62.6503 86.2205 62.5917Q86.1646 62.533 86.1213 62.4646Q86.0779 62.3962 86.0487 62.3206Q86.0195 62.2451 86.0056 62.1653Q85.9917 62.0855 85.9937 62.0045Q85.9957 61.9235 86.0134 61.8445Q86.5439 59.4771 87.8113 55.3752L87.8113 55.3752L87.8113 55.3752Q90.4698 46.7715 89.073 42.3264L89.8575 42.0798L89.4371 42.7866L89.2675 42.6858Q89.079 42.5737 88.9714 42.3826Q84.238 33.9805 85.7061 28.0188Q86.9579 22.9353 92.3446 20.3855Q96.7993 18.2769 102.258 18.5552Q107.605 18.8276 109.628 21.0647Q113.842 25.7249 114.506 31.5981Q115.314 38.7344 109.807 43.4255Q108.256 44.7471 106.31 45.4573Z" fill="#000000" fill-opacity="1.000000" fill-rule="nonzero"/>
	<path id="Vector 66" d="M87.17 27.84C84.99 30.89 87.34 38.41 89.08 40.29C74.68 32.29 83.8 14.26 88.24 17.55C88.97 10.88 96.62 8.53 101.83 14.16C114.91 3.6 115.6 21.6 110.98 24.33C106.37 27.07 100.77 24.47 97.86 25.88C94.95 27.29 93.16 35.84 92.22 31.09C91.28 26.35 89.91 24.04 87.17 27.84Z" fill="#00ADB5" fill-opacity="1.000000" fill-rule="nonzero"/>
	<path id="Vector 66" d="M87.17 27.84C89.91 24.04 91.28 26.35 92.22 31.09C93.16 35.84 94.95 27.29 97.86 25.88C100.77 24.47 106.37 27.07 110.98 24.33C115.6 21.6 114.91 3.6 101.83 14.16C96.62 8.53 88.97 10.88 88.24 17.55C83.8 14.26 74.68 32.29 89.08 40.29C87.34 38.41 84.99 30.89 87.17 27.84Z" stroke="#000000" stroke-opacity="1.000000" stroke-width="1.644861"/>
	<path id="Vector 53" d="M113.93 128.26C129.01 118.23 122.72 83.58 120.57 73.72C120.18 71.95 119.61 70.25 118.92 68.57C113.22 54.8 99.16 43.7 85.69 50.1C57 63.73 61.27 107.22 61.54 128.59L113.93 128.26Z" fill="#EEEEEE" fill-opacity="1.000000" fill-rule="nonzero"/>
	<path id="Vector 53" d="M113.93 128.26L61.54 128.59C61.27 107.21 57 63.71 85.71 50.09C99.18 43.7 113.22 54.8 118.92 68.57C119.61 70.25 120.19 71.97 120.58 73.75C122.73 83.63 129 118.24 113.93 128.26Z" stroke="#000000" stroke-opacity="1.000000" stroke-width="1.644861" stroke-linejoin="round"/>
	<path id="Vector 54" d="M147.18 66.6L159.28 81.37C159.28 81.37 121.15 121.49 104.04 123.01C94.65 123.84 76.16 95.13 76.16 95.13L93.22 68.6L106.4 95.13L147.18 66.6Z" fill="#EEEEEE" fill-opacity="1.000000" fill-rule="evenodd"/>
	<path id="Vector 61" d="M94.13 70.53L106.29 94.31L147.18 66.6L159.28 81.37C159.28 81.37 123.34 121.24 102.33 123.11C95.72 123.69 76.46 94.84 76.46 94.84" stroke="#000000" stroke-opacity="1.000000" stroke-width="1.644861"/>
	<path id="Vector 59" d="M151.21 63.93L146.41 67.01L158.45 82.25L162.23 79.19C166.26 75.93 166.89 70.03 163.66 65.98C160.64 62.21 155.27 61.33 151.21 63.93Z" fill="#F5B9AB" fill-opacity="1.000000" fill-rule="nonzero"/>
	<path id="Vector 59" d="M151.21 63.93C155.27 61.33 160.64 62.21 163.66 65.98C166.89 70.03 166.26 75.93 162.23 79.19L158.45 82.25L146.41 67.01L151.21 63.93Z" stroke="#000000" stroke-opacity="1.000000" stroke-width="1.644861" stroke-linejoin="round"/>
	<path id="Vector 56" d="M143.66 231.6L122.96 242.39L126.52 255.87L154.15 238.86L146.02 239.96L143.66 231.6Z" fill="#EEEEEE" fill-opacity="1.000000" fill-rule="nonzero"/>
	<path id="Vector 56" d="M143.66 231.6L146.02 239.96L154.15 238.86L126.52 255.87L122.96 242.39L143.66 231.6Z" stroke="#000000" stroke-opacity="1.000000" stroke-width="1.398869" stroke-linejoin="round"/>
</svg>
