<svg width="161.589111" height="129.250977" viewBox="0 0 161.589 129.251" fill="none" xmlns="http://www.w3.org/2000/svg" xmlns:xlink="http://www.w3.org/1999/xlink">
	<desc>
			Created with Pixso.
	</desc>
	<defs/>
	<path id="Vector 186" d="M2 26.86C8.77 14.65 15.17 -1.74 31.89 2.74C39.84 4.87 46.01 16.72 45.53 24.25C45.12 30.5 46.86 38.39 40.41 42.28C35.35 45.34 28.95 44.9 24.95 40.17C13.61 26.74 34.57 17.33 44.96 19.38C59.15 22.19 75.58 57.53 63.23 68.69C52.63 78.26 45.66 63.57 53.06 54.86C63.47 42.61 73.05 42.22 85.15 55.33C94.6 65.56 91.76 83.62 84.13 93.12C82.55 95.09 76.62 108.91 75.19 107.52C61.07 93.86 86.09 73.72 99.99 76.59C115.97 79.88 132.09 83.39 142.65 96.03C148.33 102.83 158.81 127.15 156.79 118.53C154.27 107.73 151.85 92.92 156.33 82.17C157.66 78.97 161.66 68.65 158.28 78.66C154.8 88.98 151.49 97.98 150.08 108.23C149.76 110.51 152.72 113.74 153.74 115.67C154.59 117.31 147.93 115.21 147.13 115.12C140.25 114.41 133.97 117.06 128.08 120.35C122.82 123.29 116.8 128.8 112.84 126.84" stroke="#00ADB5" stroke-opacity="0.200000" stroke-width="4.000000" stroke-linejoin="round" stroke-linecap="round"/>
</svg>
